<svg width="24" height="28" viewBox="0 0 24 28" fill="none" xmlns="http://www.w3.org/2000/svg">
<g filter="url(#filter0_d_1_198)">
<path d="M12 10C12.55 10 13.0208 9.80417 13.4125 9.4125C13.8042 9.02083 14 8.55 14 8C14 7.45 13.8042 6.97917 13.4125 6.5875C13.0208 6.19583 12.55 6 12 6C11.45 6 10.9792 6.19583 10.5875 6.5875C10.1958 6.97917 10 7.45 10 8C10 8.55 10.1958 9.02083 10.5875 9.4125C10.9792 9.80417 11.45 10 12 10ZM12 17.35C14.0333 15.4833 15.5417 13.7875 16.525 12.2625C17.5083 10.7375 18 9.38333 18 8.2C18 6.38333 17.4208 4.89583 16.2625 3.7375C15.1042 2.57917 13.6833 2 12 2C10.3167 2 8.89583 2.57917 7.7375 3.7375C6.57917 4.89583 6 6.38333 6 8.2C6 9.38333 6.49167 10.7375 7.475 12.2625C8.45833 13.7875 9.96667 15.4833 12 17.35ZM12 20C9.31667 17.7167 7.3125 15.5958 5.9875 13.6375C4.6625 11.6792 4 9.86667 4 8.2C4 5.7 4.80417 3.70833 6.4125 2.225C8.02083 0.741667 9.88333 0 12 0C14.1167 0 15.9792 0.741667 17.5875 2.225C19.1958 3.70833 20 5.7 20 8.2C20 9.86667 19.3375 11.6792 18.0125 13.6375C16.6875 15.5958 14.6833 17.7167 12 20Z" fill="#0047A9" style="fill:#0047A9;fill:color(display-p3 0.0000 0.2784 0.6627);fill-opacity:1;"/>
</g>
<defs>
<filter id="filter0_d_1_198" x="0" y="0" width="24" height="28" filterUnits="userSpaceOnUse" color-interpolation-filters="sRGB">
<feFlood flood-opacity="0" result="BackgroundImageFix"/>
<feColorMatrix in="SourceAlpha" type="matrix" values="0 0 0 0 0 0 0 0 0 0 0 0 0 0 0 0 0 0 127 0" result="hardAlpha"/>
<feOffset dy="4"/>
<feGaussianBlur stdDeviation="2"/>
<feComposite in2="hardAlpha" operator="out"/>
<feColorMatrix type="matrix" values="0 0 0 0 0 0 0 0 0 0 0 0 0 0 0 0 0 0 0.25 0"/>
<feBlend mode="normal" in2="BackgroundImageFix" result="effect1_dropShadow_1_198"/>
<feBlend mode="normal" in="SourceGraphic" in2="effect1_dropShadow_1_198" result="shape"/>
</filter>
</defs>
</svg>
